:SAMPLES-PER-SECOND 30
:FULLY-SPECIFIED
:DEGREES
1175
root  -71.2321 40.0916 -6.58299 -1.79424 26.9241 -4.76392
RightUpLeg  -10.1158 -39.0432 4.37086
RightLeg  18.4762 -21.9801 -4.47749
RightFoot  -7.39919 0.0343164 -2.38185
RightToes  9.54606e-009 0 -3.6325e-017
Spine  5.95161 -2.46788 -5.82895
Spine1  2.51828 -4.89544 10.0725
HEad  -19.4498 -13.0726 6.63623
LeftShoulder1  -0.493336 4.74664 -33.4972
LeftArm  8.67396 -0.734675 -47.9967
LeftForeArm  25.0751 -12.403 -9.65538
LeftHand  -0.00644712 9.07139 1.31165
RightShoulder  -1.02905 -6.42686 28.6575
RightArm  25.8862 -11.6459 40.0469
RightForeArm  11.7092 15.1506 6.75811
RightHand  -0.0447105 4.93933 -0.800364
LeftUpLeg  8.26247 8.68209 -3.24432
LeftLeg  7.89985 36.1572 0.0930678
LeftFoot  -14.9353 0.0924202 0.145052
LeftToes  -8.26734e-010 9.74065e-011 1.64617e-011
1176
root  -71.9245 40.0116 -6.79655 -1.26645 32.4567 -3.8338
RightUpLeg  -14.6341 -44.8549 6.24628
RightLeg  22.8 -16.5154 -8.0986
RightFoot  -7.76594 -0.0623087 0.240311
RightToes  9.54606e-009 0 -3.6325e-017
Spine  6.08347 -1.86567 -6.7784
Spine1  2.98634 -4.06946 8.64518
HEad  -20.9538 -9.51213 6.90964
LeftShoulder1  -0.37109 4.45993 -32.6873
LeftArm  4.47892 -2.71626 -49.1055
LeftForeArm  30.1524 -9.18127 -10.5955
LeftHand  -0.0355495 9.20023 0.403933
RightShoulder  -1.0869 -6.5426 29.243
RightArm  25.4183 -12.4332 41.5893
RightForeArm  9.37567 15.814 6.47022
RightHand  -0.0461961 5.33049 -0.813525
LeftUpLeg  7.37722 7.77286 -3.41999
LeftLeg  7.77705 30.8336 0.621401
LeftFoot  -15.7989 0.112758 0.478439
LeftToes  -8.26734e-010 9.74065e-011 1.64617e-011
1177
root  -72.5349 39.9541 -7.04889 -0.552279 36.9926 -2.24994
RightUpLeg  -17.051 -38.4328 3.48528
RightLeg  29.5274 -16.918 -10.2927
RightFoot  -6.60712 -0.188272 3.35207
RightToes  9.54606e-009 0 -3.6325e-017
Spine  6.92811 -1.26158 -6.66064
Spine1  3.15676 -2.92133 5.59661
HEad  -22.1854 -6.02307 5.91402
LeftShoulder1  -0.423882 4.58656 -33.0021
LeftArm  2.08934 -4.5027 -48.6096
LeftForeArm  32.4495 -7.40109 -10.7
LeftHand  -0.0535 9.01652 -0.117639
RightShoulder  -1.07359 -6.49095 29.4028
RightArm  27.327 -12.4381 43.5741
RightForeArm  7.6788 17.1 6.16828
RightHand  -0.15012 4.76991 -2.01306
LeftUpLeg  6.02324 7.04225 -4.4001
LeftLeg  8.80764 27.5672 1.49068
LeftFoot  -15.5241 0.158012 1.76963
LeftToes  -8.26734e-010 9.74065e-011 1.64617e-011
1178
root  -73.0901 39.9477 -7.26176 0.71075 41.1096 -0.845581
RightUpLeg  -19.7326 -31.947 0.789623
RightLeg  35.1388 -13.55 -10.2565
RightFoot  -4.1834 -0.300018 4.4975
RightToes  9.54606e-009 0 -3.6325e-017
Spine  7.39502 -0.7098 -5.80815
Spine1  3.1215 -1.68389 2.38398
HEad  -22.2375 -2.15765 3.50748
LeftShoulder1  -0.389665 4.50471 -32.7854
LeftArm  -0.597138 -5.3089 -48.3861
LeftForeArm  33.4402 -6.27893 -10.2441
LeftHand  -0.0614915 10.0043 -0.139862
RightShoulder  -1.13285 -6.62311 29.7977
RightArm  30.3474 -11.8857 44.4786
RightForeArm  6.75084 18.8875 5.60855
RightHand  -0.156475 4.3079 -2.15486
LeftUpLeg  4.07599 6.70695 -4.86416
LeftLeg  10.1656 23.7823 1.81395
LeftFoot  -15.2373 0.159223 1.99211
LeftToes  -8.26734e-010 9.74065e-011 1.64617e-011
1179
root  -73.5831 40.0117 -7.3594 1.48672 44.9617 0.204163
RightUpLeg  -20.3827 -24.4324 -2.26493
RightLeg  37.4786 -8.08555 -6.88495
RightFoot  -2.36021 -0.242538 2.82616
RightToes  9.54606e-009 0 -3.6325e-017
Spine  8.25414 -0.289389 -5.6933
Spine1  2.85053 -0.999809 1.10594
HEad  -21.5925 2.05351 0.261353
LeftShoulder1  -0.426564 4.59473 -32.944
LeftArm  -2.22807 -4.92494 -47.7008
LeftForeArm  31.6596 -5.91722 -9.69621
LeftHand  -0.00184403 9.95833 1.21453
RightShoulder  -1.1077 -6.56493 29.6596
RightArm  33.5397 -11.0692 45.1073
RightForeArm  6.40551 20.4956 5.11988
RightHand  -0.0949883 5.11311 -1.3538
LeftUpLeg  3.21846 6.98167 -4.4421
LeftLeg  10.3594 19.7224 0.844916
LeftFoot  -14.5899 0.154085 2.34948
LeftToes  -8.26734e-010 9.74065e-011 1.64617e-011
1180
root  -73.9538 40.0597 -7.35436 1.78283 48.537 0.645996
RightUpLeg  -18.928 -15.4036 -4.83198
RightLeg  35.7845 -1.55708 -1.49756
RightFoot  -3.75581 -0.30506 4.34
RightToes  9.54606e-009 0 -3.6325e-017
Spine  8.28866 -0.0844831 -4.81397
Spine1  3.41582 -0.423305 -0.709004
HEad  -21.5812 5.33301 -1.68184
LeftShoulder1  -0.386799 4.51264 -32.2126
LeftArm  -3.75645 -3.94633 -47.5777
LeftForeArm  29.7733 -5.50374 -9.04609
LeftHand  0.0656007 10.6095 2.62972
RightShoulder  -1.12361 -6.58737 29.9094
RightArm  34.7247 -10.313 45.0433
RightForeArm  5.84135 21.9466 4.79778
RightHand  -0.13421 5.88885 -1.71568
LeftUpLeg  2.44201 6.67069 -4.26918
LeftLeg  10.7864 16.5201 1.05028
LeftFoot  -13.8387 0.147333 2.95476
LeftToes  -8.26734e-010 9.74065e-011 1.64617e-011
1181
root  -74.365 40.0966 -7.28715 2.33413 53.6049 0.654114
RightUpLeg  -16.8971 -6.89371 -6.21429
RightLeg  31.6283 2.24048 1.26713
RightFoot  -6.27905 -0.382896 7.66342
RightToes  9.54606e-009 0 -3.6325e-017
Spine  8.70987 -0.386877 -5.64608
Spine1  2.83155 -1.064 0.371711
HEad  -21.8808 7.15335 -3.53619
LeftShoulder1  -0.394159 4.53082 -32.2071
LeftArm  -4.03033 -2.86196 -46.96
LeftForeArm  28.3494 -5.09239 -8.88475
LeftHand  0.0557818 9.73907 2.75818
RightShoulder  -1.03027 -6.39672 29.0739
RightArm  34.5899 -10.2934 44.8496
RightForeArm  5.06119 23.1393 4.72219
RightHand  -0.194199 5.53075 -2.38643
LeftUpLeg  0.634594 6.61668 -3.44124
LeftLeg  11.9247 11.2549 0.899094
LeftFoot  -13.4037 0.143188 3.44636
LeftToes  -8.26734e-010 9.74065e-011 1.64617e-011
1182
root  -74.6613 40.1668 -7.16557 3.10774 59.0723 1.17169
RightUpLeg  -14.3684 1.24143 -7.26502
RightLeg  26.8905 3.39663 1.66689
RightFoot  -8.13241 -0.297561 8.41743
RightToes  9.54606e-009 0 -3.6325e-017
Spine  8.48507 -0.872783 -6.52007
Spine1  3.29341 -1.85878 1.53482
HEad  -22.5618 8.42123 -3.76286
LeftShoulder1  -0.283637 4.26585 -31.097
LeftArm  -4.56266 -2.55595 -47.455
LeftForeArm  27.7214 -3.49519 -8.5105
LeftHand  0.0836709 10.1695 3.27452
RightShoulder  -0.97872 -6.26972 28.8323
RightArm  33.3383 -10.1831 44.5492
RightForeArm  3.23386 22.8747 4.81605
RightHand  -0.21959 6.29045 -2.51773
LeftUpLeg  -0.253034 5.99589 -3.1347
LeftLeg  11.8714 6.51156 0.707247
LeftFoot  -12.9052 0.119316 3.18707
LeftToes  -8.26734e-010 9.74065e-011 1.64617e-011
